<?xml version="1.0" encoding="utf-8"?>
<!-- Generator: Adobe Illustrator 16.0.0, SVG Export Plug-In . SVG Version: 6.00 Build 0)  -->
<!DOCTYPE svg PUBLIC "-//W3C//DTD SVG 1.1//EN" "http://www.w3.org/Graphics/SVG/1.1/DTD/svg11.dtd">
<svg version="1.1" id="Layer_1" xmlns="http://www.w3.org/2000/svg" xmlns:xlink="http://www.w3.org/1999/xlink" x="0px" y="0px"
	 width="117.805px" height="84.045px" viewBox="0 0 117.805 84.045" style="enable-background:new 0 0 117.805 84.045;"
	 xml:space="preserve">
<g>
	<defs>
		<rect id="SVGID_1_" y="0" width="117.805" height="84.046"/>
	</defs>
	<clipPath id="SVGID_2_">
		<use xlink:href="#SVGID_1_"  style="overflow:visible;"/>
	</clipPath>
	<path style="clip-path:url(#SVGID_2_);fill:#1F1F1D;" d="M86.461,84.045c-2.215,0-4.148-0.157-5.604-0.499
		c-4.344-0.914-8.392-4.246-11.843-7.307L40.287,53.422c-1.321-1.049-3.879-2.729-5.365-3.523l-14.713-8.871
		c-2.561-1.364-4.65-4.592-5.116-7.985c-0.363-2.65,0.321-4.957,1.929-6.494l5.964-5.336l2.759-2.257
		c0.791-0.644,1.956-0.529,2.604,0.262c0.646,0.792,0.529,1.957-0.262,2.603l-2.696,2.203l-5.858,5.241
		c-0.935,0.895-0.889,2.439-0.774,3.275c0.302,2.203,1.68,4.42,3.276,5.273l14.713,8.871c1.617,0.86,4.33,2.642,5.84,3.842
		l28.766,22.849c0.026,0.021,0.052,0.042,0.077,0.064c3.105,2.755,6.714,5.756,10.23,6.496c7.532,1.767,27.566-2.155,30.637-5.309
		c1.034-1.124,1.572-3.396,1.367-5.895c-0.2-2.426-1.084-4.584-2.254-5.496c-0.806-0.629-0.949-1.792-0.321-2.597
		c0.631-0.807,1.793-0.947,2.597-0.321c2.007,1.566,3.377,4.599,3.666,8.112c0.291,3.547-0.595,6.814-2.37,8.74
		C111.232,81.023,96.159,84.045,86.461,84.045"/>
	<path style="clip-path:url(#SVGID_2_);fill:#1F1F1D;" d="M96.681,78.99c-4.62,0-8.4-0.292-9.06-0.346
		c-3.303-0.021-9.459-1.352-12.126-3.743L22.898,27.755c-0.993-0.889-1.528-1.969-1.547-3.122c-0.013-0.834,0.251-2.096,1.589-3.378
		c0.035-0.033,0.072-0.065,0.109-0.095l9.862-8.06l8.696-11.253c0.044-0.056,0.091-0.111,0.141-0.162
		c1.347-1.379,3.279-1.964,5.161-1.559c1.827,0.388,3.315,1.639,4.013,3.362l2.64,4.516c3.663,5.275,7.044,7.963,9.937,7.807
		l6.2-7.578c0.165-0.201,0.37-0.366,0.604-0.482c0.345-0.173,3.466-1.655,6.447-0.38c1.246,0.532,2.918,1.769,3.802,4.638
		c0.019,0.06,0.034,0.12,0.046,0.181l7.334,36.514c0.464,2.314,5.218,8.02,9.318,8.924c9.326-0.821,15.845,2.355,16.12,2.492
		c2.752,1.458,4.434,4.628,4.435,8.295c0.002,3.621-1.566,6.704-4.092,8.046C109.848,78.513,102.58,78.989,96.681,78.99
		 M25.452,23.974c-0.33,0.329-0.402,0.542-0.401,0.599c0.001,0.038,0.06,0.197,0.316,0.427l52.598,47.146
		c1.651,1.481,6.82,2.799,9.736,2.799c0.052,0,0.104,0.002,0.155,0.006c4.997,0.421,19.068,0.927,24.12-1.758
		c1.274-0.677,2.129-2.597,2.128-4.777c0-1.798-0.637-4.058-2.423-5.004c-0.01-0.005-5.986-2.876-14.353-2.076
		c-0.167,0.016-0.335,0.009-0.499-0.021c-5.605-0.995-11.771-8.11-12.526-11.884l-7.314-36.416
		c-0.379-1.183-0.934-1.918-1.693-2.242c-1.077-0.463-2.422-0.067-3.022,0.157l-6.374,7.79c-0.271,0.331-0.647,0.558-1.066,0.642
		c-4.679,0.941-9.367-2.106-14.354-9.31c-0.026-0.039-0.051-0.078-0.076-0.119l-2.75-4.705c-0.053-0.094-0.1-0.191-0.137-0.292
		c-0.229-0.62-0.732-1.055-1.377-1.192c-0.623-0.131-1.225,0.039-1.68,0.464L35.71,15.53c-0.086,0.111-0.185,0.213-0.293,0.302
		L25.452,23.974z M34.246,14.399h0.01H34.246z"/>
	<path style="clip-path:url(#SVGID_2_);fill:#E94A31;" d="M74.619,30.644c-0.605,0-1.146-0.426-1.27-1.042
		c-0.138-0.701,0.317-1.382,1.019-1.521l8.368-1.662c0.705-0.136,1.382,0.318,1.521,1.018c0.139,0.701-0.316,1.382-1.018,1.521
		l-8.368,1.662C74.787,30.636,74.702,30.644,74.619,30.644"/>
	<path style="clip-path:url(#SVGID_2_);fill:#E94A31;" d="M77.143,45.595c-0.604,0-1.145-0.425-1.268-1.039
		c-0.141-0.701,0.313-1.383,1.014-1.524l8.275-1.661c0.702-0.144,1.382,0.315,1.522,1.014c0.141,0.701-0.313,1.383-1.014,1.523
		l-8.274,1.661C77.312,45.587,77.227,45.595,77.143,45.595"/>
	<path style="clip-path:url(#SVGID_2_);fill:#E94A31;" d="M75.729,38.129c-0.606,0-1.147-0.428-1.269-1.044
		c-0.138-0.701,0.318-1.382,1.02-1.519l8.442-1.662c0.712-0.142,1.382,0.32,1.52,1.02c0.138,0.701-0.318,1.382-1.02,1.519
		l-8.442,1.662C75.895,38.122,75.811,38.129,75.729,38.129"/>
	<path style="clip-path:url(#SVGID_2_);fill:#E94A31;" d="M51.088,79.947H1.25c-0.69,0-1.25-0.56-1.25-1.25s0.56-1.25,1.25-1.25
		h49.838c0.69,0,1.25,0.56,1.25,1.25S51.778,79.947,51.088,79.947"/>
	<path style="clip-path:url(#SVGID_2_);fill:#E94A31;" d="M36.448,67.488H1.25c-0.691,0-1.25-0.56-1.25-1.25s0.559-1.25,1.25-1.25
		h35.198c0.69,0,1.25,0.56,1.25,1.25S37.138,67.488,36.448,67.488"/>
	<path style="clip-path:url(#SVGID_2_);fill:#E94A31;" d="M20.709,55.028H1.25c-0.69,0-1.25-0.56-1.25-1.25s0.56-1.25,1.25-1.25
		h19.459c0.69,0,1.25,0.56,1.25,1.25S21.399,55.028,20.709,55.028"/>
</g>
</svg>
